<?xml version="1.0" encoding="UTF-8"?>
<svg width="29px" height="30px" viewBox="0 0 29 30" version="1.1" xmlns="http://www.w3.org/2000/svg" xmlns:xlink="http://www.w3.org/1999/xlink">
    <!-- Generator: Sketch 49.1 (51147) - http://www.bohemiancoding.com/sketch -->
    <title>anchor</title>
    <desc>Created with Sketch.</desc>
    <defs></defs>
    <g id="TOP" stroke="none" stroke-width="1" fill="none" fill-rule="evenodd" opacity="0.800000012">
        <g id="0418-サイトリニューアル-SP--アクセス、スポンサー追加" transform="translate(-174.000000, -631.000000)" fill="#FFFFFF" fill-rule="nonzero">
            <g id="sec_hero">
                <g id="mainContents" transform="translate(0.000000, 58.000000)">
                    <g id="scroll" transform="translate(172.000000, 573.000000)">
                        <g id="anchor" transform="translate(2.000000, 0.000000)">
                            <path d="M27.8252551,13.0434783 C27.2712792,12.0496895 26.7173032,11.2422361 26.4710917,11.2422361 C26.2248802,11.2422361 25.5477985,11.9254659 24.9938226,12.9192547 C24.4398466,13.9130435 23.3934476,15.8385093 23.3318948,17.0186336 C23.2703419,18.1987578 23.7627649,17.9503106 24.1936351,17.6397516 C24.4712683,17.3732115 24.781551,17.1436047 25.1169283,16.9565218 C24.5629524,21.4906832 17.5459239,23.3540373 17.5459239,23.3540373 C17.2144813,23.5110669 16.8309676,23.5110669 16.499525,23.3540373 C16.1552407,23.2421587 15.928137,22.9111414 15.945549,22.5465839 L15.945549,13.1055901 C15.9446741,12.9295107 16.0179032,12.7613311 16.1470206,12.6428858 C16.276138,12.5244405 16.4490085,12.4668617 16.6226307,12.4844721 L18.4076643,12.4844721 C18.4935751,12.4530974 18.5612306,12.3848276 18.5923229,12.2981367 L18.5923229,10.621118 C18.5923229,10.5182078 18.5096484,10.4347826 18.4076643,10.4347826 L16.6226307,10.4347826 C16.4490085,10.452393 16.276138,10.3948142 16.1470206,10.2763689 C16.0179032,10.1579236 15.9446741,9.989744 15.945549,9.81366463 L15.945549,7.14285718 C15.9567035,6.785869 16.1124421,6.44911315 16.3764192,6.21118016 L16.499525,6.08695656 C17.350063,5.46804274 17.8539184,4.47429212 17.8536883,3.41614911 C17.8702126,2.51589063 17.5273302,1.64673422 16.9021863,1.00423203 C16.2770425,0.361729832 15.4221432,-0.000154355879 14.5298328,4.93898344e-08 C12.6601233,4.93898343e-08 11.1444243,1.52946208 11.1444243,3.41614911 C11.1635381,4.46949528 11.6632225,5.45501949 12.4985877,6.08695656 L12.6216934,6.21118016 C12.8856705,6.44911315 13.0414091,6.785869 13.0525636,7.14285718 L13.0525636,9.81366463 C13.0726177,9.98379814 13.0142458,10.1538158 12.8941854,10.2749663 C12.774125,10.3961169 12.6056373,10.4550189 12.4370348,10.4347826 L10.6520012,10.4347826 C10.6030267,10.4347826 10.5560581,10.4544144 10.5214279,10.489359 C10.4867976,10.5243037 10.4673426,10.5716988 10.4673426,10.621118 L10.4673426,12.2981367 C10.4673426,12.4010469 10.5500171,12.4844721 10.6520012,12.4844721 L12.4370348,12.4844721 C12.6056373,12.4642359 12.774125,12.5231379 12.8941854,12.6442884 C13.0142458,12.765439 13.0726177,12.9354566 13.0525636,13.1055901 L13.0525636,22.5465839 C13.0945681,22.9178018 12.8577066,23.2630418 12.4985877,23.3540373 C12.188348,23.5093569 11.8239812,23.5093569 11.5137416,23.3540373 C11.5137416,23.3540373 4.49671312,21.4906832 3.8811843,16.9565218 C4.21656165,17.1436047 4.52684435,17.3732115 4.80447752,17.6397516 C5.29690057,17.9503106 5.8508765,18.1987578 5.66621786,17.0186336 C5.48155922,15.8385093 4.8660304,14.1614907 4.06584295,12.9192547 C3.26565549,11.6770187 2.83478532,11.2422361 2.5885738,11.2422361 C2.34236227,11.2422361 1.72683346,12.0496895 1.23441041,13.0434783 C0.741987362,14.0372671 -0.0582000937,16.1490683 0.00335278753,17.3291926 C0.0649056687,18.5093168 0.495775837,18.1987578 0.926646006,17.826087 C1.14876461,17.5915022 1.3965636,17.3831279 1.66528058,17.204969 C2.34236227,22.7329193 6.8357226,26.0869565 11.3906358,28.1987578 C12.6216934,28.757764 13.8527511,29.689441 14.5298328,30 C15.5450641,29.3458884 16.5928361,28.7446865 17.6690297,28.1987578 C22.16239,26.0869565 26.6557504,22.7329193 27.332832,17.204969 L28.1330195,17.826087 C28.5638897,18.1987578 29.0563127,18.447205 28.9947598,17.3291926 C28.933207,16.2111801 28.4407839,14.4099379 27.8252551,13.0434783 Z M14.5298328,4.47204973 C13.9411814,4.47296706 13.4545831,4.009229 13.4218809,3.41614911 C13.4218809,2.7986879 13.9179278,2.29813669 14.5298328,2.29813669 C15.1175757,2.33113583 15.5771408,2.8221526 15.5762317,3.41614911 C15.5456386,3.98603031 15.0945858,4.44117879 14.5298328,4.47204973 Z" id="Shape"></path>
                        </g>
                    </g>
                </g>
            </g>
        </g>
    </g>
</svg>