<?xml version="1.0" encoding="UTF-8"?>
<svg width="371px" height="44px" viewBox="0 0 371 44" version="1.1" xmlns="http://www.w3.org/2000/svg" xmlns:xlink="http://www.w3.org/1999/xlink">
    <!-- Generator: Sketch 50.2 (55047) - http://www.bohemiancoding.com/sketch -->
    <title>navLogo</title>
    <desc>Created with Sketch.</desc>
    <defs></defs>
    <g id="Symbols" stroke="none" stroke-width="1" fill="none" fill-rule="evenodd">
        <g id="pc/headerNav" transform="translate(-775.000000, -13.000000)" fill="#FFFFFF">
            <g id="nav" transform="translate(960.000000, 35.000000) scale(1, -1) translate(-960.000000, -35.000000) ">
                <g id="navLogo" transform="translate(960.500000, 35.000000) scale(1, -1) translate(-960.500000, -35.000000) translate(775.000000, 13.000000)">
                    <path d="M49.837561,8.51006495 C47.5816653,8.49730763 45.5821811,9.96680915 44.9108087,12.1309339 L16.5921619,9.14422844 C16.5921619,9.02148712 16.6125203,8.91920269 16.6125203,8.79646137 C16.6125401,8.31152179 16.5156167,7.83151895 16.3275016,7.38493617 L24.2469507,3.76406719 C24.6703612,4.69056749 25.5939317,5.28258966 26.6085344,5.27787682 C28.058969,5.27787682 29.2347785,4.09638385 29.2347785,2.63893841 C29.2347785,1.18149297 28.058969,8.92427946e-17 26.6085344,0 C25.1580999,-8.92427946e-17 23.9822904,1.18149297 23.9822904,2.63893841 C23.9852353,2.94609712 24.0403149,3.25049926 24.1451582,3.53904143 L15.8999735,6.64848824 C14.8836219,5.26375058 13.0378351,4.78894864 11.4843293,5.51262767 C9.9308234,6.23630671 9.09869051,7.95858018 9.49363196,9.63279308 C9.88857341,11.307006 11.4015029,12.4707259 13.1129873,12.4167405 C14.8244717,12.362755 16.261784,11.1059753 16.5514449,9.41016797 L44.6665069,14.0129675 L44.7275824,14.5039328 L14.2509366,19.4749563 C13.281747,16.4374238 10.4627727,14.3833744 7.28833613,14.4016484 C3.25735693,14.4016484 0,17.6133796 0,21.5615588 C0,25.509738 3.25735693,28.7010123 7.28833613,28.7010123 C9.8197315,28.7069851 12.1749887,27.3999182 13.5180313,25.2437984 L26.1606478,32.6696484 C26.0779215,33.1836892 26.037069,33.7036551 26.038497,34.2243718 C26.0402793,38.9629271 29.4229856,43.0182782 34.0658916,43.8479985 C38.7087975,44.6777189 43.2755923,42.0430003 44.9032094,37.5956302 C46.5308265,33.1482602 44.7508089,28.1682708 40.6791052,25.7777731 C36.6074014,23.3872755 31.4159204,24.2742973 28.3593638,27.8827368 L14.2712951,23.6072475 C14.4139171,23.1347217 14.5027054,22.647457 14.5359553,22.1548085 L44.8090163,14.9539843 C45.455726,17.5806505 48.0003136,19.2689367 50.6582784,18.8348602 C53.3162431,18.4007836 55.197775,15.9896606 54.9833694,13.2923942 C54.7689639,10.5951277 52.5303977,8.51468483 49.837561,8.51006495 Z" id="Shape" fill-rule="nonzero"></path>
                    <g id="title_header_white" transform="translate(71.000000, 10.000000)">
                        <path d="M197.14,4.94 L202.86,4.94 C204.586667,4.94 205.763333,5.27333333 206.39,5.94 C207.016667,6.60666667 207.196667,7.68666667 206.93,9.18 L205.64,16.47 L202.64,16.47 L203.86,9.55 C204.013333,8.69 203.98,8.13333333 203.76,7.88 C203.315627,7.55786171 202.763219,7.42155313 202.22,7.5 L199.78,7.5 L198.2,16.5 L195.2,16.5 L197.14,4.94 Z" id="SVGID"></path>
                        <path d="M184.34,4.94 L190.57,4.94 C191.788505,4.8123878 193.005314,5.19626221 193.93,6 C194.642086,6.90730144 194.876336,8.1008588 194.56,9.21 L193.29,16.42 L185.12,16.42 C184.204705,16.5067654 183.296653,16.193141 182.63,15.56 C182.089686,14.8661914 181.908098,13.9582517 182.14,13.11 C182.256659,11.9975309 182.819572,10.9799587 183.7,10.29 C184.810812,9.64605049 186.089192,9.34996779 187.37,9.44 L191.37,9.44 L191.42,9.15 C191.587769,8.64254216 191.451973,8.08383995 191.07,7.71 C190.435585,7.37249782 189.714483,7.2331544 189,7.31 L183.92,7.31 L184.34,4.94 Z M186.76,14.13 L190.57,14.13 L190.99,11.75 L187.4,11.75 C186.876691,11.7120844 186.35259,11.8120775 185.88,12.04 C185.551645,12.2742235 185.34026,12.6386814 185.3,13.04 C185.201942,13.3350403 185.270764,13.6600336 185.48,13.89 C185.873282,14.0955785 186.318958,14.1791426 186.76,14.13 Z" id="SVGID-2"></path>
                        <path d="M208,14 L214.41,14 C214.856374,14.0265145 215.301727,13.9333011 215.7,13.73 C215.997933,13.5415544 216.196007,13.2297717 216.24,12.88 C216.336763,12.5710907 216.242737,12.234165 216,12.02 C215.641144,11.8082352 215.225108,11.7138404 214.81,11.75 L212.19,11.75 C210.63,11.75 209.63,11.5133333 209.19,11.04 C208.675329,10.2981421 208.538358,9.35785621 208.82,8.5 C208.941892,7.43519653 209.468132,6.45789354 210.29,5.77 C211.24208,5.13353305 212.377048,4.82782965 213.52,4.9 L220,4.9 L219.58,7.3 L214.22,7.3 C213.627062,7.25569955 213.031354,7.33399258 212.47,7.53 C212.167816,7.6997429 211.966569,8.00534038 211.93,8.35 C211.847057,8.62879457 211.928294,8.93053389 212.14,9.13 C212.438633,9.31669403 212.788644,9.40419689 213.14,9.38 L216,9.38 C216.989001,9.28773898 217.972463,9.60591811 218.72,10.26 C219.305459,10.9669705 219.507222,11.9160029 219.26,12.8 C219.110237,13.7900655 218.639446,14.7035407 217.92,15.4 C217.271788,16.0442105 216.393876,16.4040103 215.48,16.4 L207.63,16.4000332 L208,14 Z" id="SVGID-3"></path>
                        <path d="M222.38,4.94 L228.61,4.94 C229.838505,4.80379165 231.067919,5.18821012 232,6 C232.712086,6.90730144 232.946336,8.1008588 232.63,9.21 L231.36,16.42 L223.19,16.42 C222.274705,16.5067654 221.366653,16.193141 220.7,15.56 C220.159686,14.8661914 219.978098,13.9582517 220.21,13.11 C220.326659,11.9975309 220.889572,10.9799587 221.77,10.29 C222.880812,9.64605049 224.159192,9.34996779 225.44,9.44 L229.44,9.44 L229.49,9.15 C229.657769,8.64254216 229.521973,8.08383995 229.14,7.71 C228.485265,7.35837566 227.737541,7.2186141 227,7.31 L222,7.31 L222.38,4.94 Z M224.8,14.13 L228.61,14.13 L229.03,11.75 L225.45,11.75 C224.926691,11.7120844 224.40259,11.8120775 223.93,12.04 C223.601645,12.2742235 223.39026,12.6386814 223.35,13.04 C223.251942,13.3350403 223.320764,13.6600336 223.53,13.89 C223.92036,14.093615 224.362257,14.1771231 224.8,14.13 Z" id="SVGID-4"></path>
                        <path d="M236.34,16.81 L233.15,16.81 L235.15,5.31 L238.34,5.31 L236.34,16.81 Z M238.6,4 L235.41,4 L235.91,1.14 L239.1,1.14 L238.6,4 Z" id="SVGID-5"></path>
                        <path d="M2.76,5.17 L8.62,5.17 C10.0791725,5.04298965 11.5108091,5.62308138 12.47,6.73 C13.3224456,8.00601229 13.5847427,9.5870809 13.19,11.07 C13.0664597,11.799294 12.8373902,12.5067145 12.51,13.17 C12.1850863,13.8107051 11.7634828,14.3975773 11.26,14.91 C10.7049637,15.5089843 10.0210819,15.974024 9.26,16.27 C8.34408394,16.5695204 7.38323284,16.7082348 6.42,16.68 L3.77,16.68 L3,20.84 L0,20.84 L2.76,5.17 Z M5.36,7.65 L4.21,14.21 L6.06,14.21 C7.04028876,14.2856257 8.01540064,14.0090485 8.81,13.43 C9.49025733,12.7275232 9.91010986,11.8137266 10,10.84 C10.2546491,10.0146792 10.1569393,9.12081514 9.73,8.37 C9.10236255,7.80370208 8.25824449,7.54060035 7.42,7.65 L5.36,7.65 Z" id="SVGID-6"></path>
                        <path d="M16.39,1 L19.39,1 L18.65,5.17 L21.35,5.17 C23.0433333,5.17 24.21,5.50333333 24.85,6.17 C25.5444558,7.08638213 25.7565043,8.2805502 25.42,9.38 L24.13,16.67 L21.09,16.67 L22.31,9.73 C22.4815176,9.19531922 22.4273382,8.61379359 22.16,8.12 C21.733799,7.77417312 21.1842051,7.6186959 20.64,7.69 L18.22,7.69 L16.64,16.69 L13.64,16.69 L16.39,1 Z" id="SVGID-7"></path>
                        <path d="M68.64,10.93 C68.3892074,12.6153186 67.5323279,14.1513018 66.23,15.25 C64.9010019,16.3440213 63.2206584,16.91953 61.5,16.87 C59.9362301,16.9904731 58.4023165,16.3945642 57.33,15.25 C56.3764197,14.0274323 56.0439659,12.431654 56.43,10.93 C56.683697,9.23822813 57.5481201,7.69791867 58.86,6.6 C60.1962198,5.51407967 61.8790132,4.94604814 63.6,5 C65.1562987,4.88398582 66.6805383,5.48410912 67.74,6.63 C68.6861729,7.85993498 69.0143527,9.45658516 68.63,10.96 M59.63,10.96 C59.4047316,11.8228149 59.5192777,12.7391839 59.95,13.52 C60.4042614,14.1621537 61.1668033,14.5129229 61.95,14.44 C62.8097146,14.4579785 63.639847,14.1259256 64.25,13.52 C64.9209116,12.8185622 65.3516282,11.9221112 65.48,10.96 C65.7067774,10.1005792 65.5920993,9.18673825 65.16,8.41 C64.7007175,7.77487827 63.9405641,7.42900847 63.16,7.5 C62.3000749,7.48086113 61.4695052,7.813089 60.86,8.42 C60.1940587,9.11970447 59.7669525,10.0124264 59.64,10.97" id="SVGID-8"></path>
                        <path d="M28.24,5.17 L34.1,5.17 C35.5591725,5.04298965 36.9908091,5.62308138 37.95,6.73 C38.8024456,8.00601229 39.0647427,9.5870809 38.67,11.07 C38.5467372,11.799362 38.3176549,12.5068221 37.99,13.17 C37.6650863,13.8107051 37.2434828,14.3975773 36.74,14.91 C36.1849637,15.5089843 35.5010819,15.974024 34.74,16.27 C33.8240839,16.5695204 32.8632328,16.7082348 31.9,16.68 L29.25,16.68 L28.52,20.85 L25.52,20.85 L28.24,5.17 Z M30.84,7.65 L29.68,14.21 L31.53,14.21 C32.5102888,14.2856257 33.4854006,14.0090485 34.28,13.43 C34.9749095,12.7332843 35.4091776,11.8188497 35.51,10.84 C35.7646491,10.0146792 35.6669393,9.12081514 35.24,8.37 C34.6123625,7.80370208 33.7682445,7.54060035 32.93,7.65 L30.84,7.65 Z" id="SVGID-9"></path>
                        <path d="M71.08,5.17 L76.8,5.17 C78.5266667,5.17 79.7033333,5.50333333 80.33,6.17 C80.9566667,6.83666667 81.1366667,7.91666667 80.87,9.41 L79.58,16.7 L76.58,16.7 L77.8,9.78 C77.9533333,8.92 77.92,8.36333333 77.7,8.11 C77.2556271,7.78786171 76.7032186,7.65155313 76.16,7.73 L73.67,7.73 L72.09,16.73 L69,16.73 L71.08,5.17 Z" id="SVGID-10"></path>
                        <path d="M84.21,7.46 L82,7.46 L82.4,5.17 L84.59,5.17 L84.82,4 C84.8872911,3.10299424 85.2657483,2.25765523 85.89,1.61 C86.6677787,1.13056506 87.5801501,0.916508696 88.49,1 L91.37,1 L91,3.22 L89.54,3.22 C89.1418914,3.1927417 88.7439751,3.27578509 88.39,3.46 C88.1275071,3.64394748 87.9564051,3.93154459 87.92,4.25 L87.76,5.17 L90.64,5.17 L90.24,7.46 L87.35,7.46 L85.73,16.67 L82.58,16.67 L84.21,7.46 Z" id="SVGID-11"></path>
                        <path d="M127.93,5.17 L133.65,5.17 C135.376667,5.17 136.553333,5.50333333 137.18,6.17 C137.806667,6.83666667 137.986667,7.91666667 137.72,9.41 L136.43,16.7 L133.43,16.7 L134.65,9.78 C134.803333,8.92 134.77,8.36333333 134.55,8.11 C134.107406,7.77471281 133.550487,7.62739897 133,7.7 L130.56,7.7 L128.98,16.7 L125.98,16.7 L127.93,5.17 Z" id="SVGID-12"></path>
                        <path d="M145.17,14.21 L148.4,14.21 L148,16.67 L143.87,16.67 C143.017782,16.6949848 142.167049,16.5835792 141.35,16.34 C140.740559,16.1400239 140.197566,15.7768752 139.78,15.29 C139.325746,14.733081 139.013472,14.0742167 138.87,13.37 C138.71107,12.5778933 138.71107,11.7621067 138.87,10.97 C139.022409,10.0952956 139.323423,9.25313422 139.76,8.48 C140.167499,7.73908698 140.710193,7.08107108 141.36,6.54 C141.949344,6.05917268 142.629554,5.70206207 143.36,5.49 C144.210001,5.25795085 145.089117,5.15016656 145.97,5.17 L150,5.17 L149.56,7.65 L146.33,7.65 C145.250266,7.55634085 144.169333,7.81604554 143.25,8.39 C142.522196,9.07350385 142.076324,10.0044846 142,11 C141.865307,11.5755581 141.865307,12.1744419 142,12.75 C142.212631,13.4803093 142.821122,14.0267882 143.57,14.16 C144.100008,14.233363 144.635108,14.2634624 145.17,14.25" id="SVGID-13"></path>
                        <path d="M51.48,14.21 L54.71,14.21 L54.28,16.67 L50.15,16.67 C49.297782,16.6949848 48.4470489,16.5835792 47.63,16.34 C47.0205592,16.1400239 46.4775656,15.7768752 46.06,15.29 C45.6057462,14.733081 45.293472,14.0742167 45.15,13.37 C44.9910702,12.5778933 44.9910702,11.7621067 45.15,10.97 C45.2899137,10.0977622 45.5773566,9.25572366 46,8.48 C46.4074991,7.73908698 46.9501926,7.08107108 47.6,6.54 C48.1893438,6.05917268 48.8695545,5.70206207 49.6,5.49 C50.4500011,5.25795085 51.3291167,5.15016656 52.21,5.17 L56.34,5.17 L55.9,7.65 L52.64,7.65 C51.5602662,7.55634085 50.4793331,7.81604554 49.56,8.39 C48.8248086,9.07029984 48.371611,10.0016745 48.29,11 C48.1553073,11.5755581 48.1553073,12.1744419 48.29,12.75 C48.5026313,13.4803093 49.1111219,14.0267882 49.86,14.16 C50.3900036,14.2334071 50.9251075,14.2635067 51.46,14.25" id="SVGID-14"></path>
                        <path d="M101.77,6.62 C101.4337,6.23394774 101.021908,5.92085005 100.56,5.7 C99.6575714,5.37334714 98.6980847,5.2338473 97.74,5.29 L96.24,5.29 C95.0224901,5.25554765 93.8127681,5.49475822 92.7,5.99 C91.6094522,6.5331639 90.7301172,7.42305095 90.2,8.52 C89.8312515,9.27876404 89.5752198,10.0872852 89.44,10.92 C89.030417,12.3872582 89.2981742,13.9607904 90.17,15.21 C90.4762052,15.5825206 90.8579375,15.8858615 91.29,16.1 C92.2367777,16.3950073 93.2324505,16.5003515 94.22,16.41 L98.66,16.41 L98.77,15.8 L99.08,14.09 L95,14.09 C93.86,14.09 93.13,14.09 92.84,13.78 C92.55,13.47 92.45,13.16 92.57,12.23 L102.12,12.23 C102.24,11.77 102.34,11.39 102.42,10.96 C102.77,9.07 102.55,7.58 101.75,6.61 M99.3,9.93 L93,9.93 C93.0576491,9.24296666 93.3847944,8.60665117 93.91,8.16 C94.6065774,7.74707151 95.412079,7.55528541 96.22,7.61 L96.86,7.61 C97.6160763,7.53254665 98.3749639,7.72758784 99,8.16 C99.32,8.47 99.42,9.01 99.3,9.93" id="SVGID-15"></path>
                        <path d="M244.85,12.06 C244.990491,10.6928005 245.657573,9.4339515 246.71,8.55 C247.994853,7.75885084 249.494536,7.38829965 251,7.49 L253.11,7.49 C253.82759,7.54290053 254.546163,7.40125877 255.19,7.08 C255.645075,6.74819546 255.939161,6.23989798 256,5.68 C256.169018,5.17954733 256.058498,4.62694945 255.71,4.23 C255.107061,3.87580791 254.403668,3.73161222 253.71,3.82 L246.3,3.82 L246.77,1.13 L255.7,1.13 C256.282433,1.11739619 256.864811,1.15756019 257.44,1.25 C257.796221,1.31687081 258.135929,1.4527538 258.44,1.65 C259.018182,2.0139223 259.444592,2.57536331 259.64,3.23 C259.852313,4.04450997 259.869444,4.89762343 259.69,5.72 C259.5227,7.03144839 258.882685,8.23680901 257.89,9.11 C256.829454,9.92329047 255.51494,10.3342972 254.18,10.27 L251.18,10.27 C250.456448,10.2151475 249.734387,10.39391 249.12,10.78 C248.619236,11.2252423 248.304961,11.8430775 248.24,12.51 L248,14.07 L258.14,14.07 L257.67,16.75 L244,16.75 L244.85,12.06 Z" id="SVGID-16"></path>
                        <path d="M266.42,17.17 C263.753333,17.17 261.9,16.5033333 260.86,15.17 C259.82,13.8366667 259.536667,11.8366667 260.01,9.17 C260.27375,6.85937871 261.334596,4.7129336 263.01,3.1 C264.777561,1.68941343 267.001892,0.977627457 269.26,1.1 C271.926667,1.1 273.77,1.76666667 274.79,3.1 C275.81,4.43333333 276.09,6.45666667 275.63,9.17 C275.350657,11.4557591 274.291002,13.5750704 272.63,15.17 C270.869026,16.5784051 268.651706,17.2902251 266.4,17.17 M266.83,14.59 C268.135874,14.6588468 269.411392,14.1805275 270.35,13.27 C271.338784,12.1113345 271.958651,10.6835519 272.13,9.17 C272.505844,7.80286087 272.385391,6.34679371 271.79,5.06 C271.095617,4.11727018 269.954849,3.61152959 268.79,3.73 C267.485483,3.66293433 266.212504,4.14528833 265.28,5.06 C264.293041,6.22368048 263.673564,7.65404643 263.5,9.17 C263.123476,10.532859 263.240349,11.9849063 263.83,13.27 C264.525378,14.2106002 265.666729,14.7127947 266.83,14.59" id="SVGID-17"></path>
                        <path d="M112.12,5.88 C111.423451,5.38720963 110.564717,5.17968209 109.72,5.3 L104.61,5.3 L102.61,16.42 L105.61,16.42 L107.13,7.48 L107.52,7.48 C107.52,7.48 108.89,7.6 109.11,7.85 C109.370753,8.39652422 109.417139,9.02094667 109.24,9.6 L109.24,9.88 L112.14,9.88 L112.48,8.02 C112.726289,7.28052656 112.607576,6.46808685 112.16,5.83" id="SVGID-18"></path>
                        <polygon id="SVGID-19" points="279.79 1.13 277.37 2.76 276.63 6.87 279.07 5.3 277.03 16.89 280.47 16.89 283.22 1.13"></polygon>
                        <path d="M124.91,6.62 C124.5737,6.23394774 124.161908,5.92085005 123.7,5.7 C122.797571,5.37334714 121.838085,5.2338473 120.88,5.29 L119.38,5.29 C118.16249,5.25554765 116.952768,5.49475822 115.84,5.99 C114.749452,6.5331639 113.870117,7.42305095 113.34,8.52 C112.971384,9.27881701 112.715359,10.0873184 112.58,10.92 C112.170417,12.3872582 112.438174,13.9607904 113.31,15.21 C113.616205,15.5825206 113.997938,15.8858615 114.43,16.1 C115.376778,16.3950073 116.372451,16.5003515 117.36,16.41 L121.8,16.41 L121.91,15.8 L122.22,14.09 L118.22,14.09 C117.08,14.09 116.35,14.09 116.06,13.78 C115.77,13.47 115.67,13.16 115.79,12.23 L125.34,12.23 C125.46,11.77 125.56,11.39 125.64,10.96 C125.99,9.07 125.77,7.58 124.97,6.61 M122.5,9.92 L116.21,9.92 C116.267649,9.23296666 116.594794,8.59665117 117.12,8.15 C117.816577,7.73707151 118.622079,7.54528541 119.43,7.6 L120,7.6 C120.752755,7.52497738 121.507674,7.71990949 122.13,8.15 C122.45,8.46 122.55,9 122.43,9.92" id="SVGID-20"></path>
                        <path d="M162.21,6.62 C161.873506,6.23415462 161.461761,5.92109181 161,5.7 C160.097571,5.37334714 159.138085,5.2338473 158.18,5.29 L156.68,5.29 C155.46249,5.25554765 154.252768,5.49475822 153.14,5.99 C152.049452,6.5331639 151.170117,7.42305095 150.64,8.52 C150.271252,9.27876404 150.01522,10.0872852 149.88,10.92 C149.470417,12.3872582 149.738174,13.9607904 150.61,15.21 C150.916205,15.5825206 151.297938,15.8858615 151.73,16.1 C152.676778,16.3950073 153.672451,16.5003515 154.66,16.41 L159.1,16.41 L159.21,15.8 L159.52,14.09 L155.52,14.09 C154.38,14.09 153.65,14.09 153.36,13.78 C153.07,13.47 152.97,13.16 153.09,12.23 L162.64,12.23 C162.76,11.77 162.86,11.39 162.94,10.96 C163.29,9.07 163.07,7.58 162.27,6.61 M159.8,9.92 L153.51,9.92 C153.567649,9.23296666 153.894794,8.59665117 154.42,8.15 C155.116577,7.73707151 155.922079,7.54528541 156.73,7.6 L157.37,7.6 C158.122755,7.52497738 158.877674,7.71990949 159.5,8.15 C159.82,8.46 159.92,9 159.8,9.92" id="SVGID-21"></path>
                        <path d="M286.076589,8.98403194 C285.496825,8.53512278 285.046208,7.94003247 284.770717,7.25948104 C284.522264,6.57452573 284.467157,5.83410497 284.611464,5.11976048 C284.866268,3.71457086 285.471429,2.69261477 286.426945,2.02195609 C287.382461,1.35129741 288.783885,1 290.567515,1 L294.899189,1 C296.650969,1 297.924991,1.35129741 298.657553,2.02195609 C299.390116,2.69261477 299.64492,3.71457086 299.421966,5.08782435 C299.28185,5.87244058 298.966036,6.61496033 298.4983,7.25948104 C297.973413,7.93650559 297.338049,8.51958748 296.619118,8.98403194 C297.282565,9.23749504 297.820163,9.74213068 298.116094,10.3892216 C298.388186,11.1466217 298.443352,11.9652787 298.275347,12.752495 C298.087308,13.9963523 297.425001,15.1184297 296.428015,15.8822355 C295.440648,16.6167665 294.166627,17 292.5741,17 L287.28691,17 C285.694383,17 284.547763,16.6167665 283.815201,15.8822355 C283.082638,15.1477046 282.859684,14.0938124 283.082638,12.7205589 C283.234801,11.8795055 283.57211,11.0830628 284.070005,10.3892216 C284.596217,9.743582 285.290878,9.25711797 286.076589,8.98403194 Z M289.866804,10.3253493 C289.155155,10.2808797 288.446198,10.4474878 287.828369,10.8043912 C287.331635,11.1546943 287.007279,11.7006117 286.936554,12.3053892 C286.841002,12.9760479 286.936554,13.4550898 287.28691,13.7744511 C287.637266,14.0938124 288.274276,14.253493 289.197942,14.253493 L291.650434,14.253493 C292.542249,14.253493 293.242961,14.0938124 293.688869,13.7744511 C294.190408,13.4432484 294.517635,12.9042162 294.580684,12.3053892 C294.708086,11.6347305 294.580684,11.1237525 294.230328,10.8043912 C293.879972,10.4850299 293.21111,10.3253493 292.319295,10.3253493 L289.866804,10.3253493 Z M291.077124,3.74650699 C290.185309,3.74650699 289.484597,3.8742515 289.006839,4.19361277 C288.523393,4.54196995 288.20158,5.07208331 288.115024,5.66267465 C288.019472,6.33333333 288.146874,6.81237525 288.49723,7.13173653 C288.847586,7.4510978 289.484597,7.57884232 290.408263,7.57884232 L292.828904,7.57884232 C293.720719,7.57884232 294.389581,7.4510978 294.867339,7.13173653 C295.347358,6.78517388 295.659547,6.25186806 295.727303,5.66267465 C295.854705,4.99201597 295.727303,4.51297405 295.376947,4.19361277 C295.026591,3.8742515 294.389581,3.74650699 293.497765,3.74650699 L291.077124,3.74650699 Z" id="Shape" fill-rule="nonzero"></path>
                        <polygon id="SVGID-23" points="170.7 1.13 173.99 1.13 172.67 8.66 180.17 1.13 184.12 1.13 176.48 8.79 181.42 16.81 177.21 16.81 172.6 9.01 171.23 16.81 167.94 16.81"></polygon>
                    </g>
                </g>
            </g>
        </g>
    </g>
</svg>